PathFileType	4	(X/Y/Z)	C:/Users/opensim2020/Desktop/walking_exp_matlab/subject06_walking21_straight_04.trc																																																																																																																																		
DataRate	CameraRate	NumFrames	NumMarkers	Units	OrigDataRate	OrigDataStartFrame	OrigNumFrames																																																																																																																														
100	100	8	44	mm	100	2322	104																																																																																																																														
Frame#	Time	LFHD			RFHD			LBHD			RBHD			C7			T10			CLAV			STRN			RBAK			LSHO			LUPA			LELB			LFRM			LWRA			LWRB			LFIN			RSHO			RUPA			RELB			RFRM			RWRA			RWRB			RFIN			LASI			RASI			LPSI			RPSI			LTHI			LKNE			LTIB			LANK			LHEE			LTOE			RTHI			RKNE			RTIB			RANK			RHEE			RTOE			*39			*40			*41			*42			*43		
		X1	Y1	Z1	X2	Y2	Z2	X3	Y3	Z3	X4	Y4	Z4	X5	Y5	Z5	X6	Y6	Z6	X7	Y7	Z7	X8	Y8	Z8	X9	Y9	Z9	X10	Y10	Z10	X11	Y11	Z11	X12	Y12	Z12	X13	Y13	Z13	X14	Y14	Z14	X15	Y15	Z15	X16	Y16	Z16	X17	Y17	Z17	X18	Y18	Z18	X19	Y19	Z19	X20	Y20	Z20	X21	Y21	Z21	X22	Y22	Z22	X23	Y23	Z23	X24	Y24	Z24	X25	Y25	Z25	X26	Y26	Z26	X27	Y27	Z27	X28	Y28	Z28	X29	Y29	Z29	X30	Y30	Z30	X31	Y31	Z31	X32	Y32	Z32	X33	Y33	Z33	X34	Y34	Z34	X35	Y35	Z35	X36	Y36	Z36	X37	Y37	Z37	X38	Y38	Z38	X39	Y39	Z39	X40	Y40	Z40	X41	Y41	Z41	X42	Y42	Z42	X43	Y43	Z43	X44	Y44	Z44
																																																																																																																																					
40	0.39	-541.45062	1656.83875	-1516.04285	-548.16217	1641.14307	-1385.32446	-676.01752	1604.44934	-1524.39465	-680.77637	1594.54028	-1396.25232	-680.54639	1443.67969	-1472.31592	-719.86377	1116.39441	-1461.4292	-569.55341	1366.66016	-1466.73877	-533.30383	1190.40344	-1475.06592	-758.33362	1274.34875	-1397.9989	-619.94586	1399.95398	-1630.021	-597.50592	1202.73145	-1710.41174	-580.56055	1091.42212	-1729.62634	-502.453	964.16565	-1753.16113	-400.30875	885.3009	-1710.27991	-453.42807	855.30444	-1746.69397	-382.2876	800.26837	-1749.30005	-625.98383	1397.09558	-1307.79065	-698.09729	1210.43982	-1221.96521	-710.52948	1089.50732	-1204.5321	-719.70709	970.35449	-1180.99255	-685.49164	820.30322	-1200.37207	-741.76917	834.36981	-1165.79846	-721.74652	752.41687	-1158.45996	-555.29309	952.18066	-1575.67285	-544.61432	957.16614	-1356.11157	-709.68622	986.02002	-1538.22485	-696.44611	980.89276	-1371.48633	-653.48541	643.64655	-1624.06616	-679.10229	481.05688	-1599.65601	-771.70911	238.90352	-1590.35254	-817.41302	73.77808	-1540.54675	-862.18909	64.78899	-1497.05127	-677.76422	39.30269	-1535.00732	-504.75739	640.75739	-1296.67041	-450.15674	528.96631	-1326.44299	-484.06085	266.39926	-1338.09583	-497.53036	83.34278	-1387.29785	-532.36914	58.97406	-1437.95728	-350.26236	47.77967	-1378.03113	-644.43256	1694.40881	-1460.45239	NaN	NaN	NaN	NaN	NaN	NaN	NaN	NaN	NaN	NaN	NaN	NaN
41	0.4	-526.35223	1654.32678	-1515.3219	-533.69623	1638.68066	-1385.15894	-661.24713	1602.2666	-1524.48828	-666.28094	1592.08435	-1396.38086	-666.0141	1441.53467	-1472.77332	-706.00616	1114.2511	-1461.56445	-555.06531	1364.35095	-1467.13318	-519.11383	1187.99609	-1475.89722	-744.19397	1272.25977	-1398.95959	-605.15796	1398.09363	-1630.39844	-581.29175	1201.2594	-1711.3092	-562.78253	1090.35986	-1730.99109	-480.2597	965.92706	-1753.92395	-375.34152	891.54071	-1710.12231	-426.93231	859.04791	-1746.61951	-353.34668	807.54626	-1749.15308	-611.84259	1394.62476	-1308.2229	-686.11188	1208.67236	-1223.10852	-699.97021	1087.97046	-1205.66418	-711.17596	968.93762	-1181.96741	-679.62183	818.33405	-1200.68225	-735.73438	833.40491	-1166.6217	-717.12524	751.15155	-1158.91541	-542.2453	949.55432	-1576.64404	-530.57855	954.66278	-1357.17566	-696.41821	983.71545	-1537.93738	-681.97235	978.56488	-1371.26404	-643.78259	641.72809	-1624.27344	-671.7381	479.59149	-1599.82983	-768.39252	238.881	-1590.4574	-816.89032	74.5552	-1540.49377	-861.72998	66.16183	-1496.93176	-677.59082	39.17619	-1535.03418	-492.20911	637.56812	-1296.57983	-437.43439	525.91479	-1326.32922	-456.54999	262.21191	-1338.11462	-456.42099	78.59435	-1387.03601	-489.59024	53.06835	-1438.06555	-307.18759	49.43164	-1378.03857	-629.78296	1692.09534	-1460.27734	NaN	NaN	NaN	NaN	NaN	NaN	NaN	NaN	NaN	NaN	NaN	NaN
42	0.41	-511.64828	1652.1106	-1515.03577	-519.26544	1636.12476	-1384.91089	-646.43677	1600.04016	-1524.5658	-651.75134	1589.56738	-1396.479	-651.43604	1439.2876	-1473.15381	-691.84613	1111.97461	-1461.65479	-540.6217	1361.92578	-1467.48596	-504.80441	1185.61804	-1476.6123	-729.86346	1269.98596	-1399.74646	-590.12494	1395.97083	-1630.453	-565.08844	1199.76819	-1712.11719	-545.15344	1089.22681	-1732.25574	-458.50134	967.75745	-1754.46765	-351.11472	897.81134	-1709.69666	-401.02505	863.00635	-1746.38135	-325.07785	815.15002	-1748.72424	-597.54242	1392.13452	-1308.56055	-673.8808	1206.91992	-1224.11548	-689.23254	1086.31433	-1206.80042	-702.48822	967.51257	-1183.01819	-672.68591	816.19159	-1200.98669	-729.35693	832.53937	-1167.34668	-712.29742	749.96271	-1159.25879	-529.04541	946.91138	-1577.45007	-515.87036	952.15295	-1357.86804	-682.93073	981.42365	-1537.65234	-667.61597	976.36206	-1371.11731	-633.94867	639.98883	-1624.44189	-664.21844	478.1626	-1600.06506	-765.01318	239.06313	-1590.41992	-816.2915	75.52339	-1540.46997	-861.2077	67.66307	-1496.86536	-677.44177	39.11897	-1535.14722	-480.43765	633.69666	-1296.56665	-425.15878	522.37616	-1326.22839	-429.66565	258.76465	-1338.20471	-415.85593	75.21445	-1386.58789	-447.60504	49.63115	-1437.12219	-265.03391	52.4874	-1377.90149	-615.06769	1689.63013	-1460.07153	NaN	NaN	NaN	NaN	NaN	NaN	NaN	NaN	NaN	NaN	NaN	NaN
43	0.42	-496.8334	1649.7998	-1514.70447	-504.88297	1633.53308	-1384.57581	-631.29059	1597.60144	-1524.3252	-637.22211	1587.00854	-1396.52771	-636.79565	1436.90112	-1473.43103	-677.70184	1109.6333	-1461.60217	-525.88184	1359.57141	-1467.76208	-490.4021	1183.11511	-1477.29407	-715.40564	1267.63354	-1400.38184	-575.29199	1393.99792	-1630.69714	-548.96832	1198.29407	-1712.84436	-527.79565	1088.16199	-1733.44727	-437.06448	969.51385	-1754.74438	-327.55496	904.17114	-1709.08594	-375.69485	867.28882	-1746.10461	-297.67624	822.93408	-1748.08521	-583.15295	1389.65186	-1308.8656	-661.47949	1205.15857	-1224.9093	-677.96796	1084.89355	-1207.42749	-692.99695	966.31818	-1183.55652	-665.61597	814.40125	-1201.10339	-722.34491	831.68988	-1168.05237	-706.66608	748.83984	-1159.65479	-515.54419	944.25012	-1578.11096	-501.01007	949.54224	-1358.6311	-669.33044	979.13989	-1537.28748	-652.60004	974.10004	-1370.5592	-623.8006	638.22565	-1624.68311	-656.59406	476.81677	-1600.33337	-761.56726	239.12775	-1590.39392	-815.55505	76.73293	-1540.38831	-860.68311	69.68412	-1496.82019	-677.25024	39.07062	-1535.2063	-469.37344	629.39777	-1296.63928	-413.74225	518.02783	-1326.74426	-403.47632	256.01563	-1338.18164	-376.63184	73.74111	-1385.49609	-407.27087	47.5492	-1435.84155	-224.37051	56.67677	-1377.50952	-600.4068	1687.24756	-1459.91199	NaN	NaN	NaN	NaN	NaN	NaN	NaN	NaN	NaN	NaN	NaN	NaN
44	0.43	-481.9303	1647.57666	-1514.40625	-490.33551	1630.96655	-1384.22522	-616.70068	1595.43884	-1524.63281	-622.64972	1584.40259	-1396.57617	-622.12915	1434.53467	-1473.61719	-663.40381	1107.22412	-1461.62354	-511.13153	1357.12073	-1467.96448	-475.78052	1180.66162	-1477.88916	-700.81647	1265.13611	-1400.88562	-560.54321	1391.948	-1630.83142	-532.89166	1196.82922	-1713.40332	-510.55353	1087.1355	-1734.38745	-416.09454	971.57111	-1755.34326	-304.68268	910.49982	-1708.27344	-350.99783	871.78607	-1745.64526	-271.13412	830.81311	-1747.20813	-568.61597	1387.15662	-1309.07727	-648.78577	1203.48694	-1225.58936	-666.5072	1083.38586	-1208.05493	-683.33179	964.98474	-1184.14392	-658.03015	812.63745	-1201.16589	-714.63208	830.87756	-1168.59863	-700.41577	747.87	-1159.96118	-501.87372	941.70642	-1578.64648	-486.09503	946.90863	-1359.36462	-655.61121	976.78296	-1536.8606	-637.6347	971.93158	-1370.09888	-613.51868	636.91925	-1624.95374	-648.55896	475.6174	-1600.75208	-757.77039	240.08804	-1590.30396	-814.97534	78.41631	-1540.3103	-859.89874	72.03663	-1496.56055	-677.02869	39.00985	-1535.26709	-458.55615	624.82397	-1296.65125	-402.31049	513.44623	-1327.47729	-378.284	254.18738	-1337.90613	-339.7056	73.67526	-1384.36938	-369.13379	46.0639	-1434.82043	-186.0208	61.84844	-1377.55029	-585.6712	1684.79907	-1459.65454	NaN	NaN	NaN	NaN	NaN	NaN	NaN	NaN	NaN	NaN	NaN	NaN
45	0.44	-467.1051	1645.36646	-1513.9696	-475.77789	1628.51904	-1383.85522	-601.75281	1593.1355	-1524.51904	-607.97852	1581.83936	-1396.52563	-607.26794	1432.14807	-1473.70227	-649.16302	1104.83374	-1461.71143	-496.17206	1354.77222	-1468.10828	-461.1402	1178.24255	-1478.27795	-686.12286	1262.64258	-1401.25916	-545.74481	1389.91492	-1630.90674	-516.99799	1195.34937	-1713.99707	-493.40814	1086.09534	-1735.23596	-395.59451	973.5166	-1755.37439	-282.53195	916.75446	-1707.26819	-326.98154	876.18701	-1744.94519	-245.51573	838.72034	-1746.11414	-553.86072	1384.70081	-1309.15576	-636.20782	1201.85437	-1225.92542	-654.74713	1081.85413	-1208.53809	-673.15887	963.74152	-1184.57288	-649.80121	810.97302	-1201.12817	-706.41327	830.05011	-1169.01855	-693.60809	746.70435	-1160.27783	-488.07678	939.27429	-1579.14331	-470.78549	944.50928	-1360.07764	-641.76544	974.40033	-1536.45923	-622.49261	969.70917	-1369.67175	-602.79828	635.68311	-1625.37366	-640.0542	474.51956	-1601.18933	-753.91119	241.03809	-1590.06104	-813.93414	80.30105	-1540.06763	-859.10956	75.06882	-1496.14539	-676.75867	38.97998	-1535.33936	-447.8826	620.01923	-1296.5769	-390.25668	509.17633	-1328.03369	-353.96143	253.12364	-1337.66504	-305.33737	74.5809	-1383.55237	-333.48923	45.19337	-1434.02405	-150.30687	68.03839	-1377.83691	-570.61963	1682.22961	-1459.10327	NaN	NaN	NaN	NaN	NaN	NaN	NaN	NaN	NaN	NaN	NaN	NaN
46	0.45	-452.0426	1643.46777	-1513.73938	-461.1723	1626.20581	-1383.401	-586.24188	1590.70007	-1523.86719	-593.3653	1579.42847	-1396.46729	-592.34277	1429.96497	-1473.68115	-634.70746	1102.59497	-1461.76843	-481.12045	1352.53027	-1468.10437	-446.3703	1175.89539	-1478.54907	-671.30121	1260.25806	-1401.48804	-530.89508	1387.96228	-1630.96606	-501.09464	1193.88257	-1714.46594	-476.6095	1084.9895	-1735.76221	-375.7829	975.50726	-1755.01929	-261.14389	922.86688	-1706.11011	-303.77753	880.66901	-1744.21045	-220.84492	846.58038	-1744.83862	-538.95056	1382.32983	-1309.11426	-622.50891	1200.17896	-1226.51843	-642.64069	1080.34302	-1208.80139	-662.73657	962.51379	-1184.70349	-641.09467	809.40527	-1201.08655	-697.95435	829.21991	-1169.26563	-685.95856	745.74573	-1160.51746	-474.42465	936.93121	-1579.64966	-455.29306	942.26123	-1360.61938	-627.76892	971.98602	-1535.97021	-607.17719	967.5152	-1369.17639	-591.57129	634.51703	-1625.88806	-630.73206	473.55994	-1601.61865	-749.6535	242.39838	-1589.98547	-812.83746	82.77213	-1540.07471	-857.78711	78.49165	-1496.26819	-676.51178	38.75433	-1535.37415	-436.30029	616.12134	-1295.26648	-377.59088	505.4635	-1327.91113	-330.72137	252.50395	-1337.49756	-273.56064	76.08544	-1383.18823	-300.69986	45.48322	-1433.45984	-117.72708	75.10732	-1378.46948	-555.99902	1680.07898	-1458.72351	NaN	NaN	NaN	NaN	NaN	NaN	NaN	NaN	NaN	NaN	NaN	NaN
47	0.46	-437.4545	1641.54639	-1513.14734	-446.53497	1624.14795	-1382.91492	-571.26709	1588.67065	-1523.7334	-578.63409	1577.16772	-1396.24463	-577.27118	1427.98083	-1473.52747	-619.94556	1100.46436	-1461.77759	-466.00391	1350.45862	-1468.03589	-431.43823	1173.77905	-1478.74365	-656.3382	1258.04297	-1401.53076	-516.12701	1386.13318	-1630.90894	-485.34888	1192.46875	-1714.8042	-460.10141	1083.88062	-1736.23645	-356.23346	977.40674	-1754.99304	-240.52092	928.88324	-1704.84912	-281.13904	885.16675	-1743.22034	-197.14374	854.28326	-1743.34216	-523.87836	1380.07434	-1308.98608	-609.04034	1198.5647	-1226.7146	-630.14789	1078.90393	-1208.88599	-651.57556	961.3277	-1184.75879	-631.65729	807.91876	-1200.85474	-688.51904	828.50403	-1169.30371	-677.68408	744.77014	-1160.53516	-460.25443	935.1748	-1580.104	-439.53995	940.23358	-1361.22461	-613.50751	969.64697	-1535.34973	-591.57251	965.41644	-1368.55945	-579.67316	633.43494	-1626.41675	-620.5528	472.68451	-1601.9447	-744.74323	244.09395	-1590.15686	-811.46533	85.85114	-1540.42505	-856.33838	82.71958	-1496.60938	-676.22388	38.6376	-1535.42712	-423.40836	612.89594	-1294.00793	-363.16766	502.59976	-1327.47522	-309.18643	252.03897	-1337.37341	-245.20891	77.73273	-1383.45276	-271.24164	46.05337	-1433.45227	-89.01413	82.30077	-1379.65198	-541.2193	1677.88245	-1458.3551	NaN	NaN	NaN	NaN	NaN	NaN	NaN	NaN	NaN	NaN	NaN	NaN
